<svg width="134" height="48" viewBox="0 0 134 48" fill="none" xmlns="http://www.w3.org/2000/svg">
<path d="M66.7142 22.1865C65.7896 21.8304 64.5802 21.7238 63.2641 21.7238H55.9367V19.4454H68.5282V15.5294H50.7793V32.475H62.8018C64.4735 32.475 65.718 32.3327 66.6432 31.9763C68.5995 31.2288 69.9155 29.4133 69.9155 27.0281C69.9155 24.6075 68.6706 22.9341 66.7142 22.1865ZM64.1532 28.0605C63.8688 28.1674 63.4776 28.2028 62.9794 28.2028H55.9367V25.4972H62.9794C63.5486 25.4972 64.0109 25.533 64.3668 25.7109C64.7934 25.9245 65.007 26.3161 65.007 26.8144C65.007 27.3129 64.758 27.8469 64.1532 28.0605Z" fill="#333333"/>
<path d="M84.3759 15.5294H76.8354L69.8994 32.475H75.7328L76.6931 30.0185H84.5181L85.5142 32.475H91.312L84.3759 15.5294ZM77.9734 26.2804L80.428 19.4454H80.8191L83.2733 26.2804H77.9734Z" fill="#333333"/>
<path d="M97.9503 26.174V32.4751H92.793V15.5294H97.9503V21.724H106.238V15.5294H111.395V32.4751H106.238V26.174H97.9503Z" fill="#333333"/>
<path d="M119.559 26.0673V32.4751H114.401V15.5294H119.559V21.902H120.982L127.206 15.5294H133.679L125.428 23.6462L134 32.4751H127.135L120.982 26.0673H119.559Z" fill="#333333"/>
<path d="M0 5.64706H40.9053V24.8257C40.9053 30.1042 38.0918 34.982 33.5248 37.6214L20.4528 45.1765L7.38052 37.6214C2.81339 34.982 4.68827e-06 30.1042 4.68827e-06 24.8257L0 5.64706Z" fill="#FFDD2D"/>
<path fill-rule="evenodd" clip-rule="evenodd" d="M11.2842 15.5294V21.8932C12.1536 20.9105 13.7345 20.2456 15.542 20.2456H17.5062V27.6433C17.5062 29.6115 16.9718 31.5387 16.1791 32.4863H24.7231C23.9321 31.5377 23.399 29.6129 23.399 27.6472V20.2456H25.3633C27.1708 20.2456 28.7516 20.9105 29.621 21.8932V15.5294H11.2842Z" fill="#333333"/>
</svg>
